# xmcd
#
# Track frame offsets:
#	150
#	11406
#	23305
#	33807
#	47685
#	63328
#	80075
#	90263
#	103214
#	115359
#	126993
#	138355
#	149658
#	160267
#	176250
#	190814
#	203174
#	217100
#	228295
#	239899
#	251749
#	262613
#
# Disc length: 3648 seconds
#
# Revision: 0
# Processed by: cddbd v1.5.2PL0 Copyright (c) Steve Scherf et al.
# Submitted via: EasyCDDAExtractor 16.0.6.1
#
DISCID=2e0e3e16
DTITLE=Various Artist - Country Sunset [Disc 02]
DYEAR=1900
DGENRE=Country
TTITLE0=Conway Twitty - It's Only Make Believe
TTITLE1=Roy Drusky - Another
TTITLE2=Barbara Fairchild - Kid Stuff
TTITLE3=Bobby G. Rice - You Lay So Easy on My Mind
TTITLE4=Holly Dunn - Daddy's Hands
TTITLE5=David Houston - For the Good Times
TTITLE6=Glen Campbell - Try a Little Kindness
TTITLE7=Cal Smith - The Lord Knows I'm Drinking
TTITLE8=Johnny Lee - Hey Bartender
TTITLE9=Patsy Cline - Let the Teardrops Fall
TTITLE10=Charlie Louvin - I Don't Love You Anymore
TTITLE11=Porter Wagoner - Misery Loves Company
TTITLE12=Wilma Cooper and Stoney Lee - There's a Big Wheel
TTITLE13=Anne Murray - Both Sides Now
TTITLE14=T. Graham Brown - She Couldn't Love Me Anymore
TTITLE15=Johnny Paycheck - She's Got a Drinking Problem
TTITLE16=Dottie and Terry West - What Are We Doin' In Love
TTITLE17=Mel Tillis - I Believe in You
TTITLE18=Mickey Gilley - She's Pulling Me Back Again
TTITLE19=Melba Montgomery - I Can't Help it
TTITLE20=Roger Miller - Kansas City Star
TTITLE21=Billie Jo Spears - Tennessee Waltz
EXTD=
EXTT0=
EXTT1=
EXTT2=
EXTT3=
EXTT4=
EXTT5=
EXTT6=
EXTT7=
EXTT8=
EXTT9=
EXTT10=
EXTT11=
EXTT12=
EXTT13=
EXTT14=
EXTT15=
EXTT16=
EXTT17=
EXTT18=
EXTT19=
EXTT20=
EXTT21=
PLAYORDER=
